<?xml version="1.0"?>
<!DOCTYPE svg PUBLIC "-//W3C//DTD SVG 1.1//EN" "http://www.w3.org/Graphics/SVG/1.1/DTD/svg11.dtd">
<svg width="53.71780922013924mm" height="89.87379845255411mm" viewBox="0 0 53.71780922013924 89.87379845255411" xmlns="http://www.w3.org/2000/svg" version="1.1">
<g id="Pad002" transform="translate(-30.142169,89.146191) scale(1,-1)">
<path id="Pad002_f0000"  d="M 81.08333333333324 88.61954618136528 L 83.33333333333324 87.32050807568862 L 83.33333333333324 87.32050807568862 L 81.08333333333324 88.61954618136528 L 81.08333333333324 88.61954618136528 Z " stroke="#191919" stroke-width="0.7 px" style="stroke-width:0.7;stroke-miterlimit:4;stroke-dasharray:none;stroke-linecap:square;fill:#adb5bd;fill-opacity:1.0;fill-rule: evenodd"/>
<path id="Pad002_f0001"  d="M 83.33333333333324 87.32050807568862 L 83.33333333333324 87.32050807568862 L 73.33333333333324 69.99999999999984 L 73.33333333333324 69.99999999999984 L 32.91881449005948 -1.421e-14 L 32.91881449005948 -1.4e-14 L 72.58333333333333 68.70096189432333 L 83.33333333333324 87.32050807568862 Z " stroke="#191919" stroke-width="0.7 px" style="stroke-width:0.7;stroke-miterlimit:4;stroke-dasharray:none;stroke-linecap:square;fill:#adb5bd;fill-opacity:1.0;fill-rule: evenodd"/>
<path id="Pad002_f0002"  d="M 70.33333333333331 70.0 L 72.58333333333333 68.70096189432333 L 83.33333333333324 87.32050807568862 L 81.08333333333324 88.61954618136528 L 70.33333333333331 70.0 Z " stroke="#191919" stroke-width="0.7 px" style="stroke-width:0.7;stroke-miterlimit:4;stroke-dasharray:none;stroke-linecap:square;fill:#adb5bd;fill-opacity:1.0;fill-rule: evenodd"/>
<path id="Pad002_f0003"  d="M 83.33333333333324 87.32050807568862 L 73.33333333333324 69.99999999999984 L 70.33333333333333 70.0 L 81.08333333333324 88.61954618136528 L 83.33333333333324 87.32050807568862 Z " stroke="#191919" stroke-width="0.7 px" style="stroke-width:0.7;stroke-miterlimit:4;stroke-dasharray:none;stroke-linecap:square;fill:#adb5bd;fill-opacity:1.0;fill-rule: evenodd"/>
<path id="Pad002_f0004"  d="M 70.33333333333333 70.0 L 73.33333333333324 69.99999999999984 L 73.33333333333324 69.99999999999984 L 70.33333333333333 70.0 L 70.33333333333333 70.0 Z " stroke="#191919" stroke-width="0.7 px" style="stroke-width:0.7;stroke-miterlimit:4;stroke-dasharray:none;stroke-linecap:square;fill:#adb5bd;fill-opacity:1.0;fill-rule: evenodd"/>
<path id="Pad002_f0005"  d="M 30.668814490059482 1.299038105676645 L 32.91881449005948 -1.4e-14 L 73.33333333333324 69.99999999999984 L 70.33333333333333 70.0 L 30.668814490059482 1.299038105676645 Z " stroke="#191919" stroke-width="0.7 px" style="stroke-width:0.7;stroke-miterlimit:4;stroke-dasharray:none;stroke-linecap:square;fill:#adb5bd;fill-opacity:1.0;fill-rule: evenodd"/>
<path id="Pad002_f0006"  d="M 33.266890701412805 -0.20096189432334466 L 32.91881449005949 -2.220446049250313e-15 L 72.58333333333333 68.70096189432333 L 72.93140954468663 68.49999999999997 L 33.266890701412805 -0.20096189432335088 Z " stroke="#191919" stroke-width="0.7 px" style="stroke-width:0.7;stroke-miterlimit:4;stroke-dasharray:none;stroke-linecap:square;fill:#adb5bd;fill-opacity:1.0;fill-rule: evenodd"/>
<path id="Pad002_f0007"  d="M 72.58333333333333 68.70096189432333 L 70.33333333333331 70.0 L 70.33333333333331 69.99999999999997 L 72.93140954468663 68.49999999999997 L 72.93140954468663 68.49999999999997 L 72.58333333333333 68.70096189432333 Z " stroke="#191919" stroke-width="0.7 px" style="stroke-width:0.7;stroke-miterlimit:4;stroke-dasharray:none;stroke-linecap:square;fill:#adb5bd;fill-opacity:1.0;fill-rule: evenodd"/>
<path id="Pad002_f0008"  d="M 72.93140954468664 68.5 L 33.266890701412805 -0.20096189432334385 L 33.266890701412805 -0.20096189432334385 L 72.93140954468664 68.5 L 72.93140954468664 68.5 Z " stroke="#191919" stroke-width="0.7 px" style="stroke-width:0.7;stroke-miterlimit:4;stroke-dasharray:none;stroke-linecap:square;fill:#adb5bd;fill-opacity:1.0;fill-rule: evenodd"/>
<path id="Pad002_f0009"  d="M 70.33333333333333 70.0 L 30.66881449005949 1.299038105676651 L 33.266890701412805 -0.20096189432335088 L 72.93140954468663 68.49999999999997 L 70.33333333333331 70.0 Z " stroke="#191919" stroke-width="0.7 px" style="stroke-width:0.7;stroke-miterlimit:4;stroke-dasharray:none;stroke-linecap:square;fill:#adb5bd;fill-opacity:1.0;fill-rule: evenodd"/>
<path id="Pad002_f0010"  d="M 70.33333333333333 70.0 L 70.33333333333333 70.0 L 30.668814490059482 1.299038105676645 L 30.66881449005949 1.299038105676651 L 70.33333333333331 69.99999999999997 L 70.33333333333331 70.0 L 81.08333333333324 88.61954618136528 L 81.08333333333324 88.61954618136528 L 70.33333333333333 70.0 Z " stroke="#191919" stroke-width="0.7 px" style="stroke-width:0.7;stroke-miterlimit:4;stroke-dasharray:none;stroke-linecap:square;fill:#adb5bd;fill-opacity:1.0;fill-rule: evenodd"/>
<path id="Pad002_f0011"  d="M 32.91881449005949 0.0 L 32.91881449005948 -1.4e-14 L 30.668814490059482 1.2990381056766456 L 30.66881449005949 1.299038105676651 L 33.266890701412805 -0.20096189432335088 L 33.266890701412805 -0.20096189432335088 L 32.91881449005949 -2.220446049250313e-15 Z " stroke="#191919" stroke-width="0.7 px" style="stroke-width:0.7;stroke-miterlimit:4;stroke-dasharray:none;stroke-linecap:square;fill:#adb5bd;fill-opacity:1.0;fill-rule: evenodd"/>
<title>b'Pad002'</title>
</g>
</svg>